<?xml version="1.0" encoding="utf-8"?>
<!-- Generator: Adobe Illustrator 25.0.0, SVG Export Plug-In . SVG Version: 6.00 Build 0)  -->
<svg version="1.1" id="Layer_1" xmlns="http://www.w3.org/2000/svg" xmlns:xlink="http://www.w3.org/1999/xlink" x="0px" y="0px"
	 viewBox="0 0 1920 1080" style="enable-background:new 0 0 1920 1080;" xml:space="preserve">
<style type="text/css">
	.st0{fill:#F4F0FA;}
	.st1{fill:#EAE4F6;}
	.st2{fill:#E1D8F3;}
</style>
<path class="st0" d="M0,0v850.19c0,0,96.25,36.51,179.8,28.4s170.58-30.43,335.95-12.17c165.36,18.26,221.06-52.74,398.61-42.6
	c177.55,10.14,327.24,77.4,473.46,55.94s353.35-43.77,414.28-37.69c60.92,6.09,117.91,22.31,117.91,22.31V0H0z"/>
<path class="st1" d="M1920,0v597.92c0,0-96.25,33.89-179.8,26.36c-83.55-7.53-170.58-28.24-335.95-11.3
	c-165.36,16.94-221.06-48.95-398.61-39.53c-177.55,9.41-327.24,71.84-473.46,51.92s-353.35-40.63-414.28-34.98S0,611.1,0,611.1V0
	H1920z"/>
<path class="st2" d="M0,0v305.23c0,0,96.25,36.51,179.8,28.4c83.55-8.11,170.58-30.43,335.95-12.17s221.06-52.74,398.61-42.6
	c177.55,10.14,327.24,77.4,473.46,55.94s353.35-43.77,414.28-37.69c60.92,6.09,117.91,22.31,117.91,22.31V0H0z"/>
</svg>
