<?xml version="1.0" encoding="utf-8"?>
<!-- Generator: Adobe Illustrator 26.3.1, SVG Export Plug-In . SVG Version: 6.00 Build 0)  -->
<svg version="1.1" id="Layer_1" xmlns="http://www.w3.org/2000/svg" xmlns:xlink="http://www.w3.org/1999/xlink" x="0px" y="0px"
	 viewBox="0 0 150 150" style="enable-background:new 0 0 150 150;" xml:space="preserve">
<style type="text/css">
	.st0{fill:url(#SVGID_1_);}
	.st1{fill:#414042;}
	.st2{fill:#9470D4;}
	.st3{fill:url(#SVGID_00000054947290426786680770000006705804354303312292_);}
</style>
<linearGradient id="SVGID_1_" gradientUnits="userSpaceOnUse" x1="20.92" y1="52.51" x2="71.86" y2="52.51">
	<stop  offset="0" style="stop-color:#EAEE11"/>
	<stop  offset="1" style="stop-color:#53B624"/>
</linearGradient>
<path class="st0" d="M20.9,46.7h31.4c0.8,0,1.6-0.1,2.4-0.2c0.1,0,0.2,0,0.3,0c0.8-0.1,1.5-0.3,2.2-0.5c0.1,0,0.3-0.1,0.4-0.1
	c0.7-0.2,1.4-0.5,2.1-0.8c0.1,0,0.2-0.1,0.3-0.2c0.7-0.3,1.4-0.7,2-1.1c0.1,0,0.1-0.1,0.2-0.1c0.7-0.4,1.3-0.9,1.9-1.4
	c0.1,0,0.1-0.1,0.2-0.1c0.6-0.5,1.2-1.1,1.8-1.8c0.1-0.1,0.2-0.2,0.3-0.3c0.6-0.6,1.1-1.3,1.7-2c0.1-0.1,0.2-0.3,0.3-0.4
	c0.5-0.7,1.1-1.5,1.6-2.3c0,0,0.1-0.1,0.1-0.1c1.1,2.9,1.7,6,1.7,9.1c0,14.1-11.5,25.5-25.5,25.5C33,69.8,22.1,59.8,20.9,46.7z"/>
<g>
	<path class="st1" d="M47.1,61.3c-9.6,0-12.5-5.8-12.6-6.1c-0.4-0.8-1.4-1.2-2.2-0.8c-0.8,0.4-1.2,1.4-0.8,2.2c0.1,0.3,3.8,8,15.6,8
		c0.9,0,1.7-0.8,1.7-1.7S48,61.3,47.1,61.3z"/>
	<path class="st1" d="M77,129.5H17v-27.4c0-21.4,15.8-28.9,29.4-28.9c13,0,18.6,9.3,18.8,9.7c0.5,0.8,1.5,1.1,2.3,0.6
		s1.1-1.5,0.6-2.3c-0.2-0.3-3.9-6.6-12.1-9.7c11.2-4,19.3-14.7,19.3-27.2c0-4.5-1.1-8.9-3-12.9c3.3-7,4.4-13.8,4.5-14.1
		c0.1-0.5-0.1-1-0.4-1.4c-0.3-0.4-0.8-0.6-1.3-0.6H46.3c0,0,0,0,0,0c-0.8,0-1.6,0-2.4,0.1c-12.3,1-22.6,9.8-25.6,22c0,0,0,0,0,0
		s0,0,0,0c-0.1,0.6-0.2,1.2-0.3,1.7c-0.1,0.6-0.2,1.3-0.3,1.9c-0.1,0.6-0.1,1.2-0.2,1.6c0,0,0,0,0,0c0,0.2,0,0.4,0,0.6
		c0,0.2,0,0.4,0,0.7c0,0,0,0.1,0,0.1c0,0,0,0,0,0c0,0,0,0.1,0,0.1v0c0,0.5,0,0.8,0,0.8c0,0.1,0,0.2,0,0.2c0.4,12,7.9,21.9,18.4,26
		c-12.2,3.5-22.3,13.4-22.3,30.9v29.1c0,0.9,0.8,1.7,1.7,1.7H77c0.9,0,1.7-0.8,1.7-1.7S77.9,129.5,77,129.5z M46.3,18.7
		C46.3,18.7,46.3,18.7,46.3,18.7l26.6,0c-0.6,2.6-1.8,7.3-4.2,12c-4.2,8.4-9.7,12.6-16.5,12.6H20.8l0-0.1l0-0.3c0-0.1,0-0.2,0-0.3
		c0.1-1.1,0.3-2.6,0.6-4.4C24.3,26.8,34.5,18.7,46.3,18.7z M20.9,46.7h31.4c0.8,0,1.6-0.1,2.4-0.2c0.1,0,0.2,0,0.3,0
		c0.8-0.1,1.5-0.3,2.2-0.5c0.1,0,0.3-0.1,0.4-0.1c0.7-0.2,1.4-0.5,2.1-0.8c0.1,0,0.2-0.1,0.3-0.2c0.7-0.3,1.4-0.7,2-1.1
		c0.1,0,0.1-0.1,0.2-0.1c0.7-0.4,1.3-0.9,1.9-1.4c0.1,0,0.1-0.1,0.2-0.1c0.6-0.5,1.2-1.1,1.8-1.8c0.1-0.1,0.2-0.2,0.3-0.3
		c0.6-0.6,1.1-1.3,1.7-2c0.1-0.1,0.2-0.3,0.3-0.4c0.5-0.7,1.1-1.5,1.6-2.3c0,0,0.1-0.1,0.1-0.1c1.1,2.9,1.7,6,1.7,9.1
		c0,14.1-11.5,25.5-25.5,25.5C33,69.8,22.1,59.8,20.9,46.7z"/>
</g>
<path class="st2" d="M131.7,84.2c-3.2-4.3-7.9-6.5-13.5-6.5c-8.6,0-12.9,3.3-15,5.8c-2.1-2.5-6.4-5.8-15-5.8
	c-5.8,0-10.8,2.5-14.1,7.1c-3.9,5.4-4.9,13.1-2.6,20.1c5.8,17.5,26.6,28.3,30.5,30.2c0.3,0.3,0.7,0.4,1.1,0.4h0.2
	c0.4,0,0.8-0.1,1.1-0.4c3.9-1.7,25.4-11.8,30.5-30.3C136.9,97.3,135.7,89.4,131.7,84.2z M125.3,108.9c-3,5.9-9.3,13.8-22.6,17.9
	c-0.2,0.1-0.3,0.1-0.5,0.1c-0.7,0-1.4-0.5-1.6-1.2c-0.3-0.9,0.2-1.8,1.1-2.1c23.1-7.2,23.6-26,23.6-26.8c0-0.9,0.8-1.7,1.7-1.7
	c0,0,0,0,0,0c0.9,0,1.7,0.8,1.7,1.7C128.7,97.1,128.6,102.5,125.3,108.9z"/>
<linearGradient id="SVGID_00000019679945895402119730000000145236767949814416_" gradientUnits="userSpaceOnUse" x1="20.83" y1="31.025" x2="72.96" y2="31.025">
	<stop  offset="0" style="stop-color:#E20613"/>
	<stop  offset="0.9977" style="stop-color:#FFCB00"/>
</linearGradient>
<path style="fill:url(#SVGID_00000019679945895402119730000000145236767949814416_);" d="M46.3,18.7C46.3,18.7,46.3,18.7,46.3,18.7
	l26.6,0c-0.6,2.6-1.8,7.3-4.2,12c-4.2,8.4-9.7,12.6-16.5,12.6H20.8l0-0.1l0-0.3c0-0.1,0-0.2,0-0.3c0.1-1.1,0.3-2.6,0.6-4.4
	C24.3,26.8,34.5,18.7,46.3,18.7z"/>
</svg>
