<?xml version="1.0" encoding="utf-8"?>
<!-- Generator: Adobe Illustrator 26.3.1, SVG Export Plug-In . SVG Version: 6.00 Build 0)  -->
<svg version="1.1" id="Layer_1" xmlns="http://www.w3.org/2000/svg" xmlns:xlink="http://www.w3.org/1999/xlink" x="0px" y="0px"
	 viewBox="0 0 150 150" style="enable-background:new 0 0 150 150;" xml:space="preserve">
<style type="text/css">
	.st0{fill:#9470D4;}
	.st1{fill:#414042;}
	.st2{fill:url(#SVGID_1_);}
	.st3{fill:url(#SVGID_00000051384592169265320810000017478264150908728455_);}
</style>
<path class="st0" d="M76.2,15.4c-12.9,0-23.4,10.5-23.4,23.4s10.5,23.4,23.4,23.4s23.4-10.5,23.4-23.4S89.1,15.4,76.2,15.4z
	 M88.3,34.2L75,48.8c-0.6,0.7-1.5,1.1-2.5,1.1c0,0,0,0,0,0c-0.9,0-1.8-0.4-2.5-1.1l-7.3-7.7c-1.3-1.4-1.2-3.5,0.1-4.8
	c1.4-1.3,3.5-1.2,4.8,0.1l4.8,5l10.9-11.9c1.3-1.4,3.4-1.5,4.8-0.2C89.5,30.7,89.6,32.8,88.3,34.2z"/>
<path class="st1" d="M127.1,73.4h-8c-3.2,0-5.9,2.6-5.9,5.9v1.1L82.5,68.5c-2.4-0.9-5.2-0.5-7.3,1.1L59.8,82
	c-2.6-0.8-4.5-0.8-7.4-0.8H36.8v-1.9c0-3.2-2.6-5.9-5.9-5.9h-8c-3.2,0-5.9,2.6-5.9,5.9v40.1c0,3.2,2.6,5.9,5.9,5.9h8
	c2.4,0,4.5-1.5,5.4-3.6l35.1,13.5c0.2,0.1,0.4,0.1,0.6,0.1c0.4,0,0.8-0.2,1.2-0.4l6.6-6.1l8.3-7.3c1.9,0.7,6.1,1.9,11.6,1.9
	c4.1,0,8.8-0.7,13.7-2.8c0.6,2.6,2.9,4.6,5.7,4.6h8c3.2,0,5.9-2.6,5.9-5.9V79.3C132.9,76.1,130.3,73.4,127.1,73.4z M31,121.9h-8
	c-1.4,0-2.5-1.1-2.5-2.5V79.3c0-1.4,1.1-2.5,2.5-2.5h8c1.4,0,2.5,1.1,2.5,2.5v40.1C33.5,120.8,32.4,121.9,31,121.9z M78.5,125.6
	l-16.8-9.2c-0.8-0.4-1.8-0.2-2.3,0.7c-0.1,0.3-0.2,0.5-0.2,0.8c0,0.6,0.3,1.2,0.9,1.5l15.7,8.6l-4.1,3.8l-34.9-13.5V84.6h15.6
	c1.7,0,2.9,0,4,0.2l-3.6,2.9c-1.6,1.3-2.6,3.3-2.8,5.3s0.7,4.2,2.1,5.6l2.4,2.4c1.4,1.4,3.3,2.2,5.3,2.2c1.7,0,3.5-0.6,4.9-1.8
	l9.8-8.7c5.7,3.6,12.8,8.2,15.4,10c0.6,0.4,1,1,1.1,1.7c0.1,0.7-0.1,1.4-0.5,2l-1.3,1.8l-10.4-6.5c-0.8-0.5-1.8-0.3-2.3,0.5
	s-0.3,1.8,0.5,2.3l11.6,7.5c0.2,0.2,0.5,0.2,0.7,0.3l1.5,0.9c0.3,0.2,0.3,0.4,0.4,0.6c0,0.1,0,0.4-0.3,0.6l-3.6,3.1l-17.3-9.5
	c-0.8-0.4-1.8-0.2-2.3,0.7c-0.1,0.3-0.2,0.5-0.2,0.8c0,0.6,0.3,1.2,0.9,1.5l16.3,8.9L78.5,125.6z M91.1,118.9l2.2-1.9
	c1-0.9,1.5-2.1,1.4-3.5s-0.8-2.5-1.9-3.2l-0.6-0.3l1.2-1.6c1-1.3,1.4-3,1.1-4.6c-0.3-1.6-1.2-3-2.5-4c-2.8-1.9-10.7-7-16.6-10.7
	c0,0-0.1,0-0.1,0c-0.1-0.1-0.2-0.1-0.3-0.1c-0.1,0-0.2-0.1-0.3-0.1c-0.1,0-0.2,0-0.3,0c-0.1,0-0.2,0-0.3,0c-0.1,0-0.2,0.1-0.3,0.1
	c-0.1,0.1-0.2,0.1-0.3,0.2c0,0-0.1,0-0.1,0.1l-10.8,9.5c-1.6,1.4-4,1.3-5.5-0.2l-2.4-2.4c-0.8-0.8-1.2-1.9-1.2-3.1
	c0.1-1.2,0.6-2.2,1.5-2.9l22.4-17.9c1.1-0.9,2.6-1.1,4-0.6l32,12.3v33C104.1,121.3,95.4,120,91.1,118.9z M129.6,119.4
	c0,1.4-1.1,2.5-2.5,2.5h-8c-1.4,0-2.5-1.1-2.5-2.5V79.3c0-1.4,1.1-2.5,2.5-2.5h8c1.4,0,2.5,1.1,2.5,2.5V119.4z"/>
<circle class="st0" cx="40.4" cy="52" r="6.5"/>
<circle class="st0" cx="109.5" cy="25.1" r="7.1"/>
<linearGradient id="SVGID_1_" gradientUnits="userSpaceOnUse" x1="6.1542" y1="77.8998" x2="80.9856" y2="154.9902">
	<stop  offset="7.712300e-03" style="stop-color:#00BCEA"/>
	<stop  offset="3.640000e-02" style="stop-color:#04B8E8"/>
	<stop  offset="0.999" style="stop-color:#8543A2"/>
</linearGradient>
<path class="st2" d="M31,121.9h-8c-1.4,0-2.5-1.1-2.5-2.5V79.3c0-1.4,1.1-2.5,2.5-2.5h8c1.4,0,2.5,1.1,2.5,2.5v40.1
	C33.5,120.8,32.4,121.9,31,121.9z"/>
<linearGradient id="SVGID_00000129915753964212835900000004177660013358844590_" gradientUnits="userSpaceOnUse" x1="55.6354" y1="29.8686" x2="130.4668" y2="106.959">
	<stop  offset="7.712300e-03" style="stop-color:#00BCEA"/>
	<stop  offset="3.640000e-02" style="stop-color:#04B8E8"/>
	<stop  offset="0.999" style="stop-color:#8543A2"/>
</linearGradient>
<path style="fill:url(#SVGID_00000129915753964212835900000004177660013358844590_);" d="M129.6,119.4c0,1.4-1.1,2.5-2.5,2.5h-8
	c-1.4,0-2.5-1.1-2.5-2.5V79.3c0-1.4,1.1-2.5,2.5-2.5h8c1.4,0,2.5,1.1,2.5,2.5V119.4z"/>
</svg>
