<?xml version="1.0" encoding="utf-8"?>
<!-- Generator: Adobe Illustrator 26.3.1, SVG Export Plug-In . SVG Version: 6.00 Build 0)  -->
<svg version="1.1" id="Layer_1" xmlns="http://www.w3.org/2000/svg" xmlns:xlink="http://www.w3.org/1999/xlink" x="0px" y="0px"
	 viewBox="0 0 150 150" style="enable-background:new 0 0 150 150;" xml:space="preserve">
<style type="text/css">
	.st0{fill:url(#SVGID_1_);}
	.st1{fill:#414042;}
	.st2{fill:#9470D4;}
</style>
<linearGradient id="SVGID_1_" gradientUnits="userSpaceOnUse" x1="44.78" y1="158.2055" x2="110.4036" y2="92.5818">
	<stop  offset="0" style="stop-color:#E20613"/>
	<stop  offset="0.9977" style="stop-color:#FFCB00"/>
</linearGradient>
<path class="st0" d="M20.3,133.7v-11.6c0,0,5.3-7.9,19.6-4.3s12-11.8,14.5-21.8s34.4-8.3,40.4,5.5s18.6,22,35.2,10.5v21.7H20.3z"/>
<path class="st1" d="M123.4,98.2H98.1v-6c0-5.2-4.2-9.4-9.4-9.4H61.4c-5.2,0-9.4,4.2-9.4,9.4v16.7H26.7c-4.7,0-8.5,3.8-8.5,8.5v16.3
	c0,0.9,0.8,1.7,1.7,1.7h33.8h42.7h33.8c0.9,0,1.7-0.8,1.7-1.7v-27C131.9,102.1,128,98.2,123.4,98.2z M21.6,117.4
	c0-2.8,2.3-5.2,5.2-5.2H52V132H21.6V117.4z M55.4,110.6V92.3c0-3.3,2.7-6.1,6.1-6.1h27.2c3.3,0,6.1,2.7,6.1,6.1v7.6V132H55.4V110.6z
	 M128.5,132H98.1v-30.5h25.3c2.8,0,5.2,2.3,5.2,5.2V132z"/>
<g>
	<path class="st2" d="M75.1,49c5.1,0,9.2-4.1,9.2-9.2s-4.1-9.2-9.2-9.2s-9.2,4.1-9.2,9.2S70,49,75.1,49z"/>
	<path class="st2" d="M75.1,15.4c-17.2,0-31.2,14-31.2,31.2s14,31.2,31.2,31.2s31.2-14,31.2-31.2C106.2,29.4,92.2,15.4,75.1,15.4z
		 M89.6,66.9c-0.9,0-1.7-0.8-1.7-1.7c0-7.1-5.8-12.9-12.9-12.9c-7.1,0-12.9,5.8-12.9,12.9c0,0.9-0.8,1.7-1.7,1.7s-1.7-0.8-1.7-1.7
		c0-6.6,4-12.3,9.6-14.8c-3.6-2.2-5.9-6.1-5.9-10.6c0-6.9,5.6-12.5,12.5-12.5c6.9,0,12.5,5.6,12.5,12.5c0,4.5-2.4,8.4-5.9,10.6
		c5.7,2.5,9.6,8.2,9.6,14.8C91.3,66.2,90.5,66.9,89.6,66.9z"/>
</g>
</svg>
