<?xml version="1.0" encoding="utf-8"?>
<!-- Generator: Adobe Illustrator 26.3.1, SVG Export Plug-In . SVG Version: 6.00 Build 0)  -->
<svg version="1.1" id="Layer_1" xmlns="http://www.w3.org/2000/svg" xmlns:xlink="http://www.w3.org/1999/xlink" x="0px" y="0px"
	 viewBox="0 0 150 150" style="enable-background:new 0 0 150 150;" xml:space="preserve">
<style type="text/css">
	.st0{fill:url(#SVGID_1_);}
	.st1{fill:#414042;}
</style>
<linearGradient id="SVGID_1_" gradientUnits="userSpaceOnUse" x1="85.07" y1="101.0441" x2="135.3" y2="101.0441">
	<stop  offset="2.624200e-03" style="stop-color:#961B80"/>
	<stop  offset="0.9992" style="stop-color:#EC529E"/>
</linearGradient>
<path class="st0" d="M132.4,79.9l-42.1-13c-2.6-0.8-5.2,1.1-5.2,3.9v60.6c0,2.2,1.8,4,4,4h42.2c2.2,0,4-1.8,4-4V83.8
	C135.3,82,134.1,80.5,132.4,79.9z M127.3,124.9H92.7c-1.4,0-2.6-1.2-2.6-2.6s1.2-2.6,2.6-2.6h34.7c1.4,0,2.6,1.2,2.6,2.6
	C129.9,123.8,128.8,124.9,127.3,124.9z M127.3,113.4H92.7c-1.4,0-2.6-1.2-2.6-2.6s1.2-2.6,2.6-2.6h34.7c1.4,0,2.6,1.2,2.6,2.6
	C129.9,112.2,128.8,113.4,127.3,113.4z M127.3,101.8H92.7c-1.4,0-2.6-1.2-2.6-2.6s1.2-2.6,2.6-2.6h34.7c1.4,0,2.6,1.2,2.6,2.6
	C129.9,100.7,128.8,101.8,127.3,101.8z M127.3,90.2H92.7c-1.4,0-2.6-1.2-2.6-2.6s1.2-2.6,2.6-2.6h34.7c1.4,0,2.6,1.2,2.6,2.6
	C129.9,89.1,128.8,90.2,127.3,90.2z"/>
<g>
	<path class="st1" d="M100.8,25.6h-0.9c0.1-0.4,0.2-0.7,0.2-1.1v-4.7c0-2.5-2-4.5-4.5-4.5H54.8c-2.5,0-4.5,2-4.5,4.5v4.7
		c0,0.4,0.1,0.8,0.2,1.1c-5.2,0.2-9.4,4.6-9.4,9.9v26.2H21.6c-3.8,0-6.8,3.1-6.8,6.8v64.8c0,0.9,0.8,1.7,1.7,1.7h32.8H52h23.8
		c0.9,0,1.7-0.8,1.7-1.7c0-0.9-0.8-1.7-1.7-1.7H53.7V68.6c0-3.8-3.1-6.8-6.8-6.8h-2.4V35.5c0-3.6,2.8-6.5,6.3-6.5h3.9h40.8h5.2
		c3.5,0,6.3,2.9,6.3,6.5v28c0,0.9,0.8,1.7,1.7,1.7s1.7-0.8,1.7-1.7v-28C110.6,30.1,106.2,25.6,100.8,25.6z M50.3,68.6v63.1h-1H18.2
		V68.6c0-1.9,1.5-3.4,3.4-3.4h25.2C48.8,65.2,50.3,66.7,50.3,68.6z M54.8,25.6c-0.6,0-1.1-0.5-1.1-1.1v-4.7c0-0.6,0.5-1.1,1.1-1.1
		h40.8c0.6,0,1.1,0.5,1.1,1.1v4.7c0,0.6-0.5,1.1-1.1,1.1H54.8z"/>
	<path class="st1" d="M95.1,37.3H54.8c-1.4,0-2.6,1.2-2.6,2.6s1.2,2.6,2.6,2.6h40.2c1.4,0,2.6-1.2,2.6-2.6S96.5,37.3,95.1,37.3z"/>
	<path class="st1" d="M95.1,52.8H54.8c-1.4,0-2.6,1.2-2.6,2.6s1.2,2.6,2.6,2.6h40.2c1.4,0,2.6-1.2,2.6-2.6S96.5,52.8,95.1,52.8z"/>
	<path class="st1" d="M75,68.1H62.6c-1.4,0-2.6,1.2-2.6,2.6s1.2,2.6,2.6,2.6H75c1.4,0,2.6-1.2,2.6-2.6S76.4,68.1,75,68.1z"/>
	<path class="st1" d="M75,84.1H62.6c-1.4,0-2.6,1.2-2.6,2.6s1.2,2.6,2.6,2.6H75c1.4,0,2.6-1.2,2.6-2.6S76.4,84.1,75,84.1z"/>
	<path class="st1" d="M75,100H62.6c-1.4,0-2.6,1.2-2.6,2.6s1.2,2.6,2.6,2.6H75c1.4,0,2.6-1.2,2.6-2.6C77.6,101.2,76.4,100,75,100z"
		/>
	<path class="st1" d="M75,116H62.6c-1.4,0-2.6,1.2-2.6,2.6s1.2,2.6,2.6,2.6H75c1.4,0,2.6-1.2,2.6-2.6S76.4,116,75,116z"/>
	<path class="st1" d="M27.9,121.1c1.4,0,2.6-1.2,2.6-2.6V75.7c0-1.4-1.1-2.6-2.6-2.6s-2.6,1.2-2.6,2.6v42.9
		C25.3,120,26.5,121.1,27.9,121.1z"/>
	<path class="st1" d="M39.8,121.1c1.4,0,2.6-1.2,2.6-2.6V75.7c0-1.4-1.2-2.6-2.6-2.6s-2.6,1.2-2.6,2.6v42.9
		C37.3,120,38.4,121.1,39.8,121.1z"/>
</g>
</svg>
